<svg xmlns="http://www.w3.org/2000/svg" width="512" height="512" version="1"><path fill="#7b7b7b" d="M446 362q0 32-16 60-14 28-40 48-25 20-60 31-34 11-74 11t-74-11q-35-11-60-31-26-20-40-48-16-28-16-60 0-20 4-37 7-19 16-35 10-16 23-29 14-13 30-23l-19-20-14-26-8-27-4-27q0-29 13-55 13-24 35-43 21-19 52-30 28-10 62-10t62 10q31 11 53 30 21 19 34 43 13 26 13 55l-4 27-8 27-14 26q-8 11-19 20 17 10 30 23 15 14 23 30 9 16 16 34 4 17 4 37zM323 147q0-11-5-22l-14-18q-10-8-21-13-13-3-27-3l-26 3q-11 5-20 13-10 8-15 18-5 11-5 22t5 23q5 9 15 17l20 11q13 5 26 5 14 0 27-5l21-11 14-17q5-12 5-23zm26 211q0-16-7-30-8-14-20-24-13-11-29-18-18-4-37-4t-37 4q-16 7-29 18-12 10-20 24-7 14-7 30t7 31q8 13 20 22 13 10 29 16 18 5 37 5t37-5q16-6 29-16 12-9 20-22 7-15 7-31z"/></svg>
