<?xml version="1.0" encoding="UTF-8" standalone="no"?>
<svg
   xmlns:dc="http://purl.org/dc/elements/1.1/"
   xmlns:cc="http://creativecommons.org/ns#"
   xmlns:rdf="http://www.w3.org/1999/02/22-rdf-syntax-ns#"
   xmlns:svg="http://www.w3.org/2000/svg"
   xmlns="http://www.w3.org/2000/svg"
   height="512"
   width="512"
   aria-hidden="true"
   focusable="false"
   data-prefix="fas"
   data-icon="slash"
   class="svg-inline--fa fa-slash fa-w-20"
   role="img"
   viewBox="0 0 512 512"
   version="1.1"
   id="svg4">
  <metadata
     id="metadata10">
    <rdf:RDF>
      <cc:Work
         rdf:about="">
        <dc:format>image/svg+xml</dc:format>
        <dc:type
           rdf:resource="http://purl.org/dc/dcmitype/StillImage" />
        <dc:title></dc:title>
      </cc:Work>
    </rdf:RDF>
  </metadata>
  <defs
     id="defs8" />
  <path
     id="path895"
     d="m 440.53603,88.51729 -52.01015,52.01018 26.50518,26.50521 c 9.40183,9.40182 9.40183,24.6048 0,33.90657 l -17.4034,17.40347 c 11.8023,26.10505 18.40359,55.11073 18.40359,85.61666 C 416.03125,418.88181 322.91307,512 207.99062,512 93.068178,512 -0.0500146,418.98187 -0.0500146,304.05944 c 0,-114.92243 93.1181926,-208.040622 208.0406346,-208.040622 30.50595,0 59.51162,6.601262 85.61672,18.403602 l 17.4034,-17.403472 c 9.40183,-9.401825 24.6048,-9.401825 33.90662,0 l 26.50518,26.505202 52.01015,-52.010177 z m 59.51163,-28.505566 h -24.00469 c -6.60129,0 -12.00234,5.401104 -12.00234,12.002365 0,6.60136 5.40105,12.002364 12.00234,12.002364 h 24.00469 c 6.60129,0 12.00235,-5.401004 12.00235,-12.002364 0,-6.601261 -5.40106,-12.002365 -12.00235,-12.002365 z M 440.03594,0 c -6.60129,0 -12.00235,5.401104 -12.00235,12.002365 v 24.004729 c 0,6.601261 5.40106,12.002365 12.00235,12.002365 6.60129,0 12.00234,-5.401104 12.00234,-12.002365 V 12.002365 C 452.03828,5.401104 446.63723,0 440.03594,0 Z m 33.90662,55.010772 17.00332,-17.003317 c 4.70092,-4.700863 4.70092,-12.302354 0,-17.003317 -4.70092,-4.700863 -12.3024,-4.700863 -17.00332,0 l -17.00332,17.003317 c -4.70092,4.700963 -4.70092,12.302454 0,17.003317 4.80094,4.700963 12.40242,4.700963 17.00332,0 z m -67.81324,0 c 4.70091,4.700963 12.3024,4.700963 17.00331,0 4.70093,-4.700863 4.70093,-12.302354 0,-17.003317 L 406.12932,21.004138 c -4.70093,-4.700863 -12.30241,-4.700863 -17.00332,0 -4.70092,4.700963 -4.70092,12.302454 0,17.003317 z m 67.81324,34.006633 c -4.70092,-4.700863 -12.30241,-4.700863 -17.00332,0 -4.70092,4.700963 -4.70092,12.302455 0,17.003315 l 17.00332,17.00332 c 4.70092,4.70096 12.3024,4.70096 17.00332,0 4.70092,-4.70086 4.70092,-12.30235 0,-17.00332 z M 111.97187,272.05317 c 0,-35.30686 28.7056,-64.01245 64.01249,-64.01245 8.80173,0 16.00313,-7.20144 16.00313,-16.00318 0,-8.80175 -7.2014,-16.00309 -16.00313,-16.00309 -52.91033,0 -96.01874,43.10837 -96.01874,96.01872 0,8.80175 7.201408,16.00318 16.003125,16.00318 8.801715,0 16.003125,-7.20143 16.003125,-16.00318 z"
     style="fill:currentColor;stroke-width:1.00019538" />
  <path
     d="M 475.62671,458.10819 4.9409071,94.31971 C -0.63516162,89.98365 -1.643174,81.94355 2.6928794,76.35949 L 18.405073,56.14324 c 4.336053,-5.58408 12.384153,-6.59208 17.968222,-2.24803 L 507.0591,417.68369 c 5.57606,4.33606 6.58408,12.37615 2.24802,17.96022 l -15.71219,20.21625 c -4.33605,5.58407 -12.38415,6.58408 -17.96822,2.24803 z"
     id="path2"
     style="fill:#ff0000;fill-opacity:1;stroke-width:0.80000985" />
</svg>
